<mxfile host="app.diagrams.net" agent="Mozilla/5.0 (X11; Linux x86_64) AppleWebKit/537.36 (KHTML, like Gecko) Chrome/137.0.0.0 Safari/537.36" version="27.1.6">
  <diagram name="Page-1" id="asKVXklOHZ7mE3YjCKvT">
    <mxGraphModel dx="3132" dy="1125" grid="1" gridSize="10" guides="1" tooltips="1" connect="1" arrows="1" fold="1" page="1" pageScale="1" pageWidth="827" pageHeight="1169" math="0" shadow="0">
      <root>
        <mxCell id="0" />
        <mxCell id="1" parent="0" />
        <mxCell id="EeIcOxMcwlqP3ms21w_u-40" value="" style="rounded=0;whiteSpace=wrap;html=1;fillColor=#cce5ff;strokeColor=none;shadow=1;gradientColor=none;opacity=90;" parent="1" vertex="1">
          <mxGeometry x="-130" y="830" width="960" height="470" as="geometry" />
        </mxCell>
        <mxCell id="EeIcOxMcwlqP3ms21w_u-53" value="" style="rounded=1;whiteSpace=wrap;html=1;fillColor=#f8cecc;strokeColor=none;shadow=1;opacity=50;" parent="1" vertex="1">
          <mxGeometry x="540" y="1030" width="260" height="210" as="geometry" />
        </mxCell>
        <mxCell id="EeIcOxMcwlqP3ms21w_u-52" value="" style="rounded=1;whiteSpace=wrap;html=1;fillColor=#e1d5e7;strokeColor=none;shadow=1;opacity=40;" parent="1" vertex="1">
          <mxGeometry x="30" y="860" width="500" height="420" as="geometry" />
        </mxCell>
        <mxCell id="EeIcOxMcwlqP3ms21w_u-39" value="" style="rounded=0;whiteSpace=wrap;html=1;fillColor=#b1ddf0;strokeColor=none;shadow=1;gradientColor=none;opacity=90;" parent="1" vertex="1">
          <mxGeometry x="-130" y="630" width="960" height="210" as="geometry" />
        </mxCell>
        <mxCell id="EeIcOxMcwlqP3ms21w_u-38" value="" style="rounded=0;whiteSpace=wrap;html=1;fillColor=#b0e3e6;strokeColor=none;shadow=1;gradientColor=none;" parent="1" vertex="1">
          <mxGeometry x="-130" y="430" width="960" height="210" as="geometry" />
        </mxCell>
        <mxCell id="EeIcOxMcwlqP3ms21w_u-37" value="" style="rounded=0;whiteSpace=wrap;html=1;fillColor=#d5e8d4;strokeColor=none;shadow=1;gradientColor=none;opacity=90;" parent="1" vertex="1">
          <mxGeometry x="-130" y="130" width="960" height="310" as="geometry" />
        </mxCell>
        <mxCell id="EeIcOxMcwlqP3ms21w_u-16" style="rounded=0;orthogonalLoop=1;jettySize=auto;html=1;entryX=0;entryY=0.5;entryDx=0;entryDy=0;strokeWidth=2;shadow=1;" parent="1" source="EeIcOxMcwlqP3ms21w_u-1" target="EeIcOxMcwlqP3ms21w_u-2" edge="1">
          <mxGeometry relative="1" as="geometry" />
        </mxCell>
        <mxCell id="EeIcOxMcwlqP3ms21w_u-1" value="&lt;b&gt;&lt;font face=&quot;Courier New&quot; style=&quot;font-size: 16px;&quot;&gt;Parser&lt;/font&gt;&lt;/b&gt;" style="rounded=1;whiteSpace=wrap;html=1;fillColor=#f5f5f5;fontColor=#333333;strokeColor=none;glass=0;shadow=1;" parent="1" vertex="1">
          <mxGeometry x="160" y="210" width="120" height="60" as="geometry" />
        </mxCell>
        <mxCell id="EeIcOxMcwlqP3ms21w_u-17" style="rounded=0;orthogonalLoop=1;jettySize=auto;html=1;exitX=0.5;exitY=1;exitDx=0;exitDy=0;entryX=0.5;entryY=0;entryDx=0;entryDy=0;strokeWidth=2;shadow=1;" parent="1" source="EeIcOxMcwlqP3ms21w_u-2" target="EeIcOxMcwlqP3ms21w_u-4" edge="1">
          <mxGeometry relative="1" as="geometry" />
        </mxCell>
        <mxCell id="EeIcOxMcwlqP3ms21w_u-2" value="&lt;b&gt;&lt;font face=&quot;Courier New&quot; style=&quot;font-size: 16px;&quot;&gt;Binder&lt;/font&gt;&lt;/b&gt;" style="rounded=1;whiteSpace=wrap;html=1;fillColor=#f5f5f5;fontColor=#333333;strokeColor=none;shadow=1;" parent="1" vertex="1">
          <mxGeometry x="480" y="210" width="120" height="60" as="geometry" />
        </mxCell>
        <mxCell id="EeIcOxMcwlqP3ms21w_u-19" style="rounded=0;orthogonalLoop=1;jettySize=auto;html=1;entryX=0.5;entryY=0;entryDx=0;entryDy=0;shadow=1;strokeWidth=2;" parent="1" source="EeIcOxMcwlqP3ms21w_u-3" target="EeIcOxMcwlqP3ms21w_u-5" edge="1">
          <mxGeometry relative="1" as="geometry" />
        </mxCell>
        <mxCell id="EeIcOxMcwlqP3ms21w_u-3" value="&lt;b&gt;&lt;font face=&quot;Courier New&quot; style=&quot;font-size: 16px;&quot;&gt;Optimizer&lt;/font&gt;&lt;/b&gt;" style="rounded=1;whiteSpace=wrap;html=1;fillColor=#f5f5f5;fontColor=#333333;strokeColor=none;shadow=1;" parent="1" vertex="1">
          <mxGeometry x="160" y="310" width="120" height="60" as="geometry" />
        </mxCell>
        <mxCell id="EeIcOxMcwlqP3ms21w_u-18" style="rounded=0;orthogonalLoop=1;jettySize=auto;html=1;entryX=1;entryY=0.5;entryDx=0;entryDy=0;shadow=1;strokeWidth=2;" parent="1" source="EeIcOxMcwlqP3ms21w_u-4" target="EeIcOxMcwlqP3ms21w_u-3" edge="1">
          <mxGeometry relative="1" as="geometry">
            <mxPoint x="370" y="370" as="targetPoint" />
          </mxGeometry>
        </mxCell>
        <mxCell id="EeIcOxMcwlqP3ms21w_u-4" value="&lt;b&gt;&lt;font face=&quot;Courier New&quot; style=&quot;font-size: 16px;&quot;&gt;Planner&lt;/font&gt;&lt;/b&gt;" style="rounded=1;whiteSpace=wrap;html=1;fillColor=#f5f5f5;fontColor=#333333;strokeColor=none;shadow=1;" parent="1" vertex="1">
          <mxGeometry x="480" y="310" width="120" height="60" as="geometry" />
        </mxCell>
        <mxCell id="EeIcOxMcwlqP3ms21w_u-5" value="" style="rounded=1;whiteSpace=wrap;html=1;fillColor=#dae8fc;strokeColor=none;shadow=1;" parent="1" vertex="1">
          <mxGeometry x="70" y="480" width="680" height="120" as="geometry" />
        </mxCell>
        <mxCell id="EeIcOxMcwlqP3ms21w_u-32" style="rounded=0;orthogonalLoop=1;jettySize=auto;html=1;entryX=0.5;entryY=0;entryDx=0;entryDy=0;exitX=0.25;exitY=1;exitDx=0;exitDy=0;shadow=1;strokeWidth=2;" parent="1" source="EeIcOxMcwlqP3ms21w_u-6" target="EeIcOxMcwlqP3ms21w_u-7" edge="1">
          <mxGeometry relative="1" as="geometry" />
        </mxCell>
        <mxCell id="EeIcOxMcwlqP3ms21w_u-33" style="rounded=0;orthogonalLoop=1;jettySize=auto;html=1;entryX=0.5;entryY=0;entryDx=0;entryDy=0;exitX=0.75;exitY=1;exitDx=0;exitDy=0;shadow=1;strokeWidth=2;" parent="1" source="EeIcOxMcwlqP3ms21w_u-6" target="EeIcOxMcwlqP3ms21w_u-9" edge="1">
          <mxGeometry relative="1" as="geometry" />
        </mxCell>
        <mxCell id="EeIcOxMcwlqP3ms21w_u-6" value="&lt;b&gt;&lt;font face=&quot;Courier New&quot; style=&quot;font-size: 16px;&quot;&gt;Transaction Manager&lt;/font&gt;&lt;/b&gt;" style="rounded=1;whiteSpace=wrap;html=1;fillColor=#f5f5f5;fontColor=#333333;strokeColor=none;shadow=1;" parent="1" vertex="1">
          <mxGeometry x="160" y="710" width="250" height="60" as="geometry" />
        </mxCell>
        <mxCell id="EeIcOxMcwlqP3ms21w_u-34" style="rounded=0;orthogonalLoop=1;jettySize=auto;html=1;entryX=0;entryY=0.25;entryDx=0;entryDy=0;exitX=0.5;exitY=1;exitDx=0;exitDy=0;shadow=1;strokeWidth=2;" parent="1" source="EeIcOxMcwlqP3ms21w_u-7" target="EeIcOxMcwlqP3ms21w_u-8" edge="1">
          <mxGeometry relative="1" as="geometry" />
        </mxCell>
        <mxCell id="EeIcOxMcwlqP3ms21w_u-7" value="&lt;b&gt;&lt;font face=&quot;Courier New&quot; style=&quot;font-size: 16px;&quot;&gt;Index&lt;/font&gt;&lt;/b&gt;" style="rounded=1;whiteSpace=wrap;html=1;fillColor=#f5f5f5;fontColor=#333333;strokeColor=none;shadow=1;" parent="1" vertex="1">
          <mxGeometry x="110" y="890" width="120" height="60" as="geometry" />
        </mxCell>
        <mxCell id="EeIcOxMcwlqP3ms21w_u-43" style="rounded=0;orthogonalLoop=1;jettySize=auto;html=1;shadow=1;strokeWidth=2;" parent="1" source="EeIcOxMcwlqP3ms21w_u-8" target="EeIcOxMcwlqP3ms21w_u-58" edge="1">
          <mxGeometry relative="1" as="geometry" />
        </mxCell>
        <mxCell id="EeIcOxMcwlqP3ms21w_u-8" value="&lt;b&gt;&lt;font face=&quot;Courier New&quot; style=&quot;font-size: 16px;&quot;&gt;Buffer Pool Manager&lt;/font&gt;&lt;/b&gt;" style="rounded=1;whiteSpace=wrap;html=1;fillColor=#f5f5f5;fontColor=#333333;strokeColor=none;shadow=1;" parent="1" vertex="1">
          <mxGeometry x="220" y="980" width="140" height="60" as="geometry" />
        </mxCell>
        <mxCell id="EeIcOxMcwlqP3ms21w_u-35" style="rounded=0;orthogonalLoop=1;jettySize=auto;html=1;entryX=1;entryY=0.25;entryDx=0;entryDy=0;exitX=0.5;exitY=1;exitDx=0;exitDy=0;shadow=1;strokeWidth=2;" parent="1" source="EeIcOxMcwlqP3ms21w_u-9" target="EeIcOxMcwlqP3ms21w_u-8" edge="1">
          <mxGeometry relative="1" as="geometry" />
        </mxCell>
        <mxCell id="EeIcOxMcwlqP3ms21w_u-9" value="&lt;b&gt;&lt;font face=&quot;Courier New&quot; style=&quot;font-size: 16px;&quot;&gt;Table Heap&lt;/font&gt;&lt;/b&gt;" style="rounded=1;whiteSpace=wrap;html=1;fillColor=#f5f5f5;fontColor=#333333;strokeColor=none;shadow=1;" parent="1" vertex="1">
          <mxGeometry x="360" y="890" width="120" height="60" as="geometry" />
        </mxCell>
        <mxCell id="EeIcOxMcwlqP3ms21w_u-49" style="rounded=0;orthogonalLoop=1;jettySize=auto;html=1;shadow=1;strokeWidth=2;" parent="1" source="EeIcOxMcwlqP3ms21w_u-10" target="EeIcOxMcwlqP3ms21w_u-48" edge="1">
          <mxGeometry relative="1" as="geometry" />
        </mxCell>
        <mxCell id="EeIcOxMcwlqP3ms21w_u-10" value="&lt;b&gt;&lt;font face=&quot;Courier New&quot; style=&quot;font-size: 16px;&quot;&gt;Disk Manager&lt;/font&gt;&lt;/b&gt;" style="rounded=1;whiteSpace=wrap;html=1;fillColor=#f5f5f5;fontColor=#333333;strokeColor=none;shadow=1;" parent="1" vertex="1">
          <mxGeometry x="470" y="1110" width="140" height="70" as="geometry" />
        </mxCell>
        <mxCell id="EeIcOxMcwlqP3ms21w_u-11" value="&lt;p&gt;&lt;b&gt;&lt;font face=&quot;Courier New&quot; style=&quot;font-size: 20px;&quot;&gt;Query Processing&lt;/font&gt;&lt;/b&gt;&lt;/p&gt;" style="text;html=1;align=center;verticalAlign=middle;whiteSpace=wrap;rounded=0;" parent="1" vertex="1">
          <mxGeometry x="-110" y="270" width="130" height="30" as="geometry" />
        </mxCell>
        <mxCell id="EeIcOxMcwlqP3ms21w_u-12" value="&lt;b&gt;&lt;font face=&quot;Courier New&quot; style=&quot;font-size: 20px;&quot;&gt;Storage Management&lt;/font&gt;&lt;/b&gt;" style="text;html=1;align=center;verticalAlign=middle;whiteSpace=wrap;rounded=0;" parent="1" vertex="1">
          <mxGeometry x="-110" y="1080" width="130" height="30" as="geometry" />
        </mxCell>
        <mxCell id="EeIcOxMcwlqP3ms21w_u-13" value="&lt;b&gt;&lt;font face=&quot;Courier New&quot; style=&quot;font-size: 20px;&quot;&gt;Concurrency Control&lt;/font&gt;&lt;/b&gt;" style="text;html=1;align=center;verticalAlign=middle;whiteSpace=wrap;rounded=0;" parent="1" vertex="1">
          <mxGeometry x="-110" y="725" width="130" height="30" as="geometry" />
        </mxCell>
        <mxCell id="EeIcOxMcwlqP3ms21w_u-14" value="&lt;font face=&quot;Courier New&quot;&gt;Query Execution&lt;/font&gt;" style="text;html=1;align=center;verticalAlign=middle;whiteSpace=wrap;rounded=0;fontStyle=1;fontSize=20;" parent="1" vertex="1">
          <mxGeometry x="-100" y="530" width="110" height="30" as="geometry" />
        </mxCell>
        <mxCell id="EeIcOxMcwlqP3ms21w_u-29" style="rounded=0;orthogonalLoop=1;jettySize=auto;html=1;entryX=0.5;entryY=0;entryDx=0;entryDy=0;curved=0;flowAnimation=0;shadow=1;strokeWidth=2;textShadow=0;" parent="1" source="EeIcOxMcwlqP3ms21w_u-15" target="EeIcOxMcwlqP3ms21w_u-1" edge="1">
          <mxGeometry relative="1" as="geometry" />
        </mxCell>
        <mxCell id="EeIcOxMcwlqP3ms21w_u-15" value="&lt;b&gt;&lt;font face=&quot;Courier New&quot; style=&quot;font-size: 16px;&quot;&gt;SQL&lt;/font&gt;&lt;/b&gt;" style="text;html=1;align=center;verticalAlign=middle;whiteSpace=wrap;rounded=0;glass=0;shadow=0;" parent="1" vertex="1">
          <mxGeometry x="175" y="150" width="90" height="30" as="geometry" />
        </mxCell>
        <mxCell id="EeIcOxMcwlqP3ms21w_u-24" value="&lt;b&gt;&lt;font face=&quot;Courier New&quot; style=&quot;font-size: 16px;&quot;&gt;Aggregation&lt;/font&gt;&lt;/b&gt;" style="rounded=1;whiteSpace=wrap;html=1;fillColor=#f5f5f5;fontColor=#333333;strokeColor=none;shadow=1;" parent="1" vertex="1">
          <mxGeometry x="90" y="510" width="120" height="60" as="geometry" />
        </mxCell>
        <mxCell id="EeIcOxMcwlqP3ms21w_u-25" value="&lt;b&gt;&lt;font face=&quot;Courier New&quot; style=&quot;font-size: 16px;&quot;&gt;Join&lt;/font&gt;&lt;/b&gt;" style="rounded=1;whiteSpace=wrap;html=1;fillColor=#f5f5f5;fontColor=#333333;strokeColor=none;shadow=1;" parent="1" vertex="1">
          <mxGeometry x="220" y="510" width="120" height="60" as="geometry" />
        </mxCell>
        <mxCell id="EeIcOxMcwlqP3ms21w_u-30" style="rounded=0;orthogonalLoop=1;jettySize=auto;html=1;entryX=0.5;entryY=0;entryDx=0;entryDy=0;shadow=1;strokeWidth=2;" parent="1" source="EeIcOxMcwlqP3ms21w_u-26" target="EeIcOxMcwlqP3ms21w_u-6" edge="1">
          <mxGeometry relative="1" as="geometry" />
        </mxCell>
        <mxCell id="EeIcOxMcwlqP3ms21w_u-26" value="&lt;b&gt;&lt;font face=&quot;Courier New&quot; style=&quot;font-size: 16px;&quot;&gt;SeqScan&lt;/font&gt;&lt;/b&gt;" style="rounded=1;whiteSpace=wrap;html=1;fillColor=#f5f5f5;fontColor=#333333;strokeColor=none;shadow=1;" parent="1" vertex="1">
          <mxGeometry x="350" y="510" width="120" height="60" as="geometry" />
        </mxCell>
        <mxCell id="EeIcOxMcwlqP3ms21w_u-27" value="&lt;b&gt;&lt;font face=&quot;Courier New&quot; style=&quot;font-size: 16px;&quot;&gt;Projection&lt;/font&gt;&lt;/b&gt;" style="rounded=1;whiteSpace=wrap;html=1;fillColor=#f5f5f5;fontColor=#333333;strokeColor=none;shadow=1;" parent="1" vertex="1">
          <mxGeometry x="480" y="510" width="120" height="60" as="geometry" />
        </mxCell>
        <mxCell id="EeIcOxMcwlqP3ms21w_u-28" value="&lt;b&gt;&lt;font face=&quot;Courier New&quot; style=&quot;font-size: 16px;&quot;&gt;...&lt;/font&gt;&lt;/b&gt;" style="rounded=1;whiteSpace=wrap;html=1;fillColor=#f5f5f5;fontColor=#333333;strokeColor=none;shadow=1;" parent="1" vertex="1">
          <mxGeometry x="610" y="510" width="120" height="60" as="geometry" />
        </mxCell>
        <mxCell id="EeIcOxMcwlqP3ms21w_u-31" value="&lt;b&gt;&lt;font face=&quot;Courier New&quot; style=&quot;font-size: 13px;&quot;&gt;Executors&lt;/font&gt;&lt;/b&gt;" style="text;html=1;align=center;verticalAlign=middle;whiteSpace=wrap;rounded=0;" parent="1" vertex="1">
          <mxGeometry x="660" y="570" width="60" height="30" as="geometry" />
        </mxCell>
        <mxCell id="EeIcOxMcwlqP3ms21w_u-48" value="&lt;b&gt;&lt;font face=&quot;Courier New&quot; style=&quot;font-size: 16px;&quot;&gt;Disk I/O&lt;/font&gt;&lt;/b&gt;" style="text;html=1;align=center;verticalAlign=middle;whiteSpace=wrap;rounded=0;" parent="1" vertex="1">
          <mxGeometry x="690" y="1130" width="90" height="30" as="geometry" />
        </mxCell>
        <mxCell id="EeIcOxMcwlqP3ms21w_u-50" value="&lt;b&gt;&lt;font face=&quot;Courier New&quot; style=&quot;font-size: 13px;&quot;&gt;Memory&lt;/font&gt;&lt;/b&gt;" style="text;html=1;align=center;verticalAlign=middle;whiteSpace=wrap;rounded=0;" parent="1" vertex="1">
          <mxGeometry x="420" y="1249" width="60" height="30" as="geometry" />
        </mxCell>
        <mxCell id="EeIcOxMcwlqP3ms21w_u-51" value="&lt;b&gt;&lt;font face=&quot;Courier New&quot; style=&quot;font-size: 13px;&quot;&gt;Disk&lt;/font&gt;&lt;/b&gt;" style="text;html=1;align=center;verticalAlign=middle;whiteSpace=wrap;rounded=0;" parent="1" vertex="1">
          <mxGeometry x="730" y="1210" width="60" height="30" as="geometry" />
        </mxCell>
        <mxCell id="EeIcOxMcwlqP3ms21w_u-59" style="rounded=0;orthogonalLoop=1;jettySize=auto;html=1;entryX=0;entryY=0.5;entryDx=0;entryDy=0;fontStyle=0;strokeWidth=2;shadow=1;exitX=0.707;exitY=0.763;exitDx=0;exitDy=0;exitPerimeter=0;" parent="1" source="EeIcOxMcwlqP3ms21w_u-58" target="EeIcOxMcwlqP3ms21w_u-10" edge="1">
          <mxGeometry relative="1" as="geometry" />
        </mxCell>
        <mxCell id="EeIcOxMcwlqP3ms21w_u-58" value="&lt;font style=&quot;font-size: 16px;&quot; face=&quot;Courier New&quot;&gt;&lt;b&gt;Cache Hit&lt;/b&gt;&lt;/font&gt;" style="rhombus;whiteSpace=wrap;html=1;strokeColor=none;shadow=1;fillColor=#f5f5f5;fontColor=#333333;rounded=1;" parent="1" vertex="1">
          <mxGeometry x="220" y="1080" width="140" height="80" as="geometry" />
        </mxCell>
        <mxCell id="EeIcOxMcwlqP3ms21w_u-62" value="&lt;font style=&quot;font-size: 13px;&quot; face=&quot;Courier New&quot;&gt;&lt;b&gt;No&lt;/b&gt;&lt;/font&gt;" style="text;html=1;align=center;verticalAlign=middle;whiteSpace=wrap;rounded=0;" parent="1" vertex="1">
          <mxGeometry x="370" y="1120" width="60" height="30" as="geometry" />
        </mxCell>
        <mxCell id="EeIcOxMcwlqP3ms21w_u-63" value="" style="rounded=1;whiteSpace=wrap;html=1;fillColor=light-dark(#ccddea, #39454e);strokeColor=none;shadow=1;" parent="1" vertex="1">
          <mxGeometry x="85" y="1169" width="130" height="80" as="geometry" />
        </mxCell>
        <mxCell id="EeIcOxMcwlqP3ms21w_u-65" value="&lt;b&gt;&lt;font style=&quot;font-size: 13px;&quot; face=&quot;Courier New&quot;&gt;Yes&lt;/font&gt;&lt;/b&gt;" style="text;html=1;align=center;verticalAlign=middle;whiteSpace=wrap;rounded=0;rotation=0;" parent="1" vertex="1">
          <mxGeometry x="190" y="1139" width="60" height="30" as="geometry" />
        </mxCell>
        <mxCell id="EeIcOxMcwlqP3ms21w_u-66" value="&lt;font style=&quot;font-size: 16px;&quot; face=&quot;Courier New&quot;&gt;&lt;b&gt;Page&lt;/b&gt;&lt;/font&gt;" style="rounded=1;whiteSpace=wrap;html=1;fillColor=#f5f5f5;fontColor=#333333;strokeColor=none;shadow=1;" parent="1" vertex="1">
          <mxGeometry x="110" y="1180" width="80" height="41" as="geometry" />
        </mxCell>
        <mxCell id="EeIcOxMcwlqP3ms21w_u-67" value="&lt;font face=&quot;Courier New&quot; style=&quot;font-size: 13px;&quot;&gt;&lt;b&gt;Page Guard&lt;/b&gt;&lt;/font&gt;" style="text;html=1;align=center;verticalAlign=middle;whiteSpace=wrap;rounded=0;" parent="1" vertex="1">
          <mxGeometry x="125" y="1221" width="80" height="30" as="geometry" />
        </mxCell>
        <mxCell id="EeIcOxMcwlqP3ms21w_u-64" style="rounded=0;orthogonalLoop=1;jettySize=auto;html=1;entryX=1;entryY=0.5;entryDx=0;entryDy=0;strokeWidth=2;shadow=1;" parent="1" source="EeIcOxMcwlqP3ms21w_u-58" target="EeIcOxMcwlqP3ms21w_u-66" edge="1">
          <mxGeometry relative="1" as="geometry" />
        </mxCell>
      </root>
    </mxGraphModel>
  </diagram>
</mxfile>
